<mxfile host="app.diagrams.net" agent="Mozilla/5.0 (Windows NT 10.0; Win64; x64) AppleWebKit/537.36 (KHTML, like Gecko) Chrome/136.0.0.0 Safari/537.36 Edg/136.0.0.0" version="27.1.1">
  <diagram name="Casos de Uso - EcoAgenda" id="12345">
    <mxGraphModel dx="1331" dy="834" grid="1" gridSize="10" guides="1" tooltips="1" connect="1" arrows="1" fold="1" page="1" pageScale="1" pageWidth="827" pageHeight="1169" math="0" shadow="0">
      <root>
        <mxCell id="0" />
        <mxCell id="1" parent="0" />
        <mxCell id="Usuario" value="Usuário Comum" style="shape=umlActor;verticalLabelPosition=bottom;verticalAlign=top;" parent="1" vertex="1">
          <mxGeometry x="80" y="100" width="30" height="60" as="geometry" />
        </mxCell>
        <mxCell id="Organizador" value="Organizador" style="shape=umlActor;verticalLabelPosition=bottom;verticalAlign=top;" parent="1" vertex="1">
          <mxGeometry x="80" y="240" width="30" height="60" as="geometry" />
        </mxCell>
        <mxCell id="Admin" value="Administrador" style="shape=umlActor;verticalLabelPosition=bottom;verticalAlign=top;" parent="1" vertex="1">
          <mxGeometry x="80" y="380" width="30" height="60" as="geometry" />
        </mxCell>
        <mxCell id="BuscarEvento" value="Buscar Evento" style="ellipse;whiteSpace=wrap;html=1;aspect=fixed;" parent="1" vertex="1">
          <mxGeometry x="300" y="100" width="140" height="60" as="geometry" />
        </mxCell>
        <mxCell id="InscreverEvento" value="Inscrever-se em Evento" style="ellipse;whiteSpace=wrap;html=1;aspect=fixed;" parent="1" vertex="1">
          <mxGeometry x="300" y="170" width="160" height="60" as="geometry" />
        </mxCell>
        <mxCell id="CadastrarEvento" value="Cadastrar Evento" style="ellipse;whiteSpace=wrap;html=1;aspect=fixed;" parent="1" vertex="1">
          <mxGeometry x="300" y="240" width="140" height="60" as="geometry" />
        </mxCell>
        <mxCell id="VisualizarInscricoes" value="Visualizar Inscrições" style="ellipse;whiteSpace=wrap;html=1;aspect=fixed;" parent="1" vertex="1">
          <mxGeometry x="300" y="310" width="160" height="60" as="geometry" />
        </mxCell>
        <mxCell id="AprovarEvento" value="Aprovar Evento" style="ellipse;whiteSpace=wrap;html=1;aspect=fixed;" parent="1" vertex="1">
          <mxGeometry x="300" y="380" width="140" height="60" as="geometry" />
        </mxCell>
        <mxCell id="GerenciarUsuarios" value="Gerenciar Usuários" style="ellipse;whiteSpace=wrap;html=1;aspect=fixed;" parent="1" vertex="1">
          <mxGeometry x="300" y="450" width="160" height="60" as="geometry" />
        </mxCell>
        <mxCell id="UsuarioToBuscar" style="endArrow=none;html=1;" parent="1" source="Usuario" target="BuscarEvento" edge="1">
          <mxGeometry relative="1" as="geometry" />
        </mxCell>
        <mxCell id="UsuarioToInscrever" style="endArrow=none;html=1;" parent="1" source="Usuario" target="InscreverEvento" edge="1">
          <mxGeometry relative="1" as="geometry" />
        </mxCell>
        <mxCell id="OrganizadorToCadastrar" style="endArrow=none;html=1;" parent="1" source="Organizador" target="CadastrarEvento" edge="1">
          <mxGeometry relative="1" as="geometry" />
        </mxCell>
        <mxCell id="OrganizadorToVisualizar" style="endArrow=none;html=1;" parent="1" source="Organizador" target="VisualizarInscricoes" edge="1">
          <mxGeometry relative="1" as="geometry" />
        </mxCell>
        <mxCell id="AdminToAprovar" style="endArrow=none;html=1;" parent="1" source="Admin" target="AprovarEvento" edge="1">
          <mxGeometry relative="1" as="geometry" />
        </mxCell>
        <mxCell id="AdminToGerenciar" style="endArrow=none;html=1;" parent="1" source="Admin" target="GerenciarUsuarios" edge="1">
          <mxGeometry relative="1" as="geometry" />
        </mxCell>
      </root>
    </mxGraphModel>
  </diagram>
</mxfile>
